<?xml version="1.0" encoding="utf-8"?>
<!-- Generator: Adobe Illustrator 27.2.0, SVG Export Plug-In . SVG Version: 6.00 Build 0)  -->
<svg version="1.1" id="Layer_1" xmlns="http://www.w3.org/2000/svg" xmlns:xlink="http://www.w3.org/1999/xlink" x="0px" y="0px"
	 viewBox="0 0 518.88 484.58" style="enable-background:new 0 0 518.88 484.58;" xml:space="preserve">
<g>
	<path d="M263.81,37.96c61.15,1,117.46,23.49,162.59,71.08c58.48,61.65,72.1,154.68,32.4,229.67
		c-30.97,58.5-79.97,95.57-144.66,110.44c-74.63,17.16-142.38,1.62-201.4-47.24c-41.04-33.98-65.7-78.06-71.78-131.32
		c-7.16-62.71,11.9-117.26,55.05-162.98C138.36,62.75,198.41,37.74,263.81,37.96z M219.58,317.65c0.83,1.74,1.61,3.51,2.5,5.23
		c6.25,12.12,12.52,24.23,18.76,36.35c2.46,4.78,1.12,8.53-2.99,11.78c-3.58,2.83-6.89,6.01-11.23,9.85
		c7.29,6.46,13.87,12.29,20.78,18.41c-3.79-7.93-12.35-11.42-17.05-18.89c3.65-3.25,7.18-6.49,10.81-9.6
		c3.01-2.58,4.26-5.62,2.42-9.3c-6.46-12.92-12.95-25.82-19.61-38.64c-1.01-1.95-2.98-3.41-4.5-5.1c-0.52-1.32-1.04-2.65-1.76-4.5
		c8.6,2.27,16.73,4.55,24.93,6.53c3.97,0.96,6.19,2.99,7.31,7.04c7.69,27.93,15.58,55.81,23.41,83.7c0.36,1.3,0.82,2.57,1.23,3.85
		c1.77-4.36,2.53-8.59,2.92-12.86c1.14-12.54,5.45-23.94,11.96-34.63c1.66-2.72,3.28-3.33,6.48-2.32
		c6.49,2.04,13.13,3.81,19.83,4.94c6.23,1.06,12.63,1.15,18.95,1.66c0.09-0.47,0.17-0.95,0.26-1.42
		c-28.79-0.94-53.89-8.63-67.95-36.65c0.59,2.29,1.18,4.58,1.93,7.5c-5.88-0.65-10.04-2.54-12.58-7.14
		c-2.21-4.01-2.49-8.59,0.69-11.68c4.43-4.3,3.04-7.79,0.12-11.65c-4.98-6.59-5.49-13.54-2.6-21.22c1.69-4.47,3.06-9.29,3.32-14.02
		c0.28-5.14,1.92-9.29,4.94-13.24c9.47-12.38,19.09-24.72,34.3-30.42c25.07-9.41,49.65-9.06,72.81,5.71
		c13.49,8.6,22.72,21.5,26.51,36.39c3.24,12.73,5.35,26.55,0.84,40c-0.55,1.65-0.38,4.07,0.46,5.57c5.26,9.44,3.09,16.13-6.9,20.71
		c-1.76,0.81-3.47,1.96-4.88,3.3c-5.77,5.48-11.32,11.19-17.17,16.59c-2.05,1.89-2.48,3.1-1.09,5.81
		c3.69,7.19,6.82,14.67,10.13,22.05c0.4,0.9,0.47,1.95,0.83,2.87c0.3,0.75,0.81,1.41,1.22,2.11c-2.24-6.95,1.92-10.66,6.44-14.48
		c3.94-3.32,7.57-7.03,11.19-10.71c40.86-41.59,56.88-91.75,49.37-149.04c-5.28-40.24-24.32-74.17-53.8-101.88
		c-77.9-73.22-200.94-70.16-274.65,7.27c-40.07,42.1-54.87,92.92-45.86,150.12c5.71,36.24,22.9,67.18,48.2,93.68
		c2.45,2.56,4.11,5.86,6.1,8.76c0.13-0.31,0.69-1.43,1.06-2.6c4.85-15.58,9.74-31.15,14.43-46.78c1.01-3.36,2.63-5.21,6.15-6.21
		c9.29-2.64,18.45-5.72,27.62-8.73c2.35-0.77,5.25-0.68,5.53-4.57c0.3-4.19-2.83-4.5-5.25-5.44c-8.76-3.43-15.72-8.88-19.33-17.73
		c-3.14-7.68-6.09-15.48-8.45-23.43c-1.72-5.8-2.36-11.93-3.47-17.92c0.7,18.67,4.69,36.36,16.3,52.24
		c-3.39,1.44-6.37,2.72-10.05,4.28c-0.49-3.68-0.96-6.75-1.29-9.83c-0.41-3.76-1.75-5.6-6.13-4.79c-4.31,0.8-8.8,0.57-14.09,0.84
		c1.27-5.16,2.28-9.32,3.33-13.47c1.8-7.11,1.81-7.1-5.09-9.37c-5.43-1.79-10.85-3.59-17.15-5.67c6.84-6.68,12.76-12.46,18.73-18.28
		c-7.22-11.36-18.57-14.76-31.67-17.24c3.13-2.25,4.84-3.53,6.59-4.75c5.87-4.1,11.69-8.27,17.65-12.24
		c3.43-2.29,3.73-4.99,1.37-7.97c-4.13-5.2-8.41-10.29-12.76-15.31c-2.34-2.7-4.95-5.15-8.26-8.55c12.55-1,23.82-2.13,35.11-2.67
		c4.66-0.23,6.08-2.21,4.92-6.18c-1.86-6.36-4.1-12.62-6.24-18.9c-0.65-1.91-1.52-3.75-2.61-6.4c2.65,0.48,4.32,0.58,5.84,1.1
		c7.08,2.4,14.22,4.69,21.15,7.49c3.53,1.43,5.45,0.68,6.33-2.77c1.93-7.57,3.75-15.16,5.53-22.77c0.54-2.32,0.8-4.71,1.19-7.07
		c0.46-0.16,0.92-0.31,1.38-0.47c7.97,8.99,15.95,17.99,24.17,27.26c9.74-10.68,20.6-18.92,33.46-24.43
		c0.74,10.35,1.12,20.3,2.26,30.17c0.99,8.57,1.54,8.69,9.71,6.07c7.71-2.47,15.37-5.12,24.37-8.12
		c-6.61,11.23-12.52,21.27-18.92,32.15c11.18,1.76,21.19,3.34,32.37,5.11c-8.88,8.24-16.7,15.5-25.11,23.3
		c9.39,3.87,17.74,7.31,26.09,10.74c0.12,0.63,0.23,1.25,0.35,1.88c-11.43,5.1-22.85,10.19-35.52,15.84
		c7.21,4.66,13.98,9.04,21.73,14.05c-6.61,2.74-12.2,5.26-17.94,7.35c-3.09,1.12-3.8,2.61-2.59,5.59c1.34,3.3,2.33,6.75,3.63,10.59
		c-3.73,0.49-6.69,0.83-9.62,1.28c-4.4,0.68-5.13,2.22-2.7,5.99c1.49,2.3,3.25,4.43,5.29,7.17c-3,1.06-5.38,1.71-7.6,2.73
		c-2.97,1.36-5.95,2.79-8.66,4.58c-4.63,3.06-8.9,6.71-13.64,9.57c-3.59,2.17-5.12,5.1-2.78,8.54
		C215.2,313.7,217.55,315.56,219.58,317.65z M171.96,383.73c2.29-1.37,2.46-3.31-0.31-5.61c-3.2-2.66-6.12-5.69-9.51-8.06
		c-3.9-2.72-4.2-5.8-2.54-9.88c4.5-11.08,8.82-22.24,13.23-33.37c0.57-1.45,1.26-2.85,1.89-4.27c-0.47-0.2-0.95-0.41-1.42-0.61
		c-4.18,9.9-8.72,19.67-12.46,29.73c-6.02,16.22-7.22,12.54,5.5,24.14c0.74,0.67,1.65,1.23,2.18,2.04
		C169.73,379.69,170.76,381.65,171.96,383.73z"/>
</g>
</svg>
